# xmcd CD database file
#
# Track frame offsets:
#	150
#	11757
#	30029
#	41474
#	57139
#	76561
#	92093
#	110808
#	128533
#	147015
#	162535
#	180121
#	195685
#	212108
#	227759
#	241101
#
# Disc length: 3539 seconds
#
# Revision: 2
# Processed by: cddbd v1.4b41PL1 Copyright (c) Steve Scherf et al.
# Submitted via: Feurio! 1.60 - http://www.feurio.com
#
DISCID=bc0dd110,ca0dd110
DTITLE=Various Artist - Simply the Best of the 70's CD 4
DYEAR=1900
DGENRE=
TTITLE0=Elvis Presley - The Wonder of You
TTITLE1=Lobo - I´d love to want me
TTITLE2=Thom Pace - Maybe
TTITLE3=Terry Jacks - Seasons in the Sun
TTITLE4=Carly Simon - You´re so vain
TTITLE5=Kate Bush - Wuthering Heights
TTITLE6=The Kinks - Lola
TTITLE7=Bonnie Tyler - Lost in France
TTITLE8=Smokie - Lay Back inthe Arms of Someone
TTITLE9=Dawn - Tie A Yellow Ribbon ´Round the ole
TTITLE10=Lynsey de Paul - Sugar me
TTITLE11=Fox - Only you can
TTITLE12=Slik - Forever and Ever
TTITLE13=Medicine Head - One and One is One
TTITLE14=Dana - All Kinds of Everything
TTITLE15=Julie Convington - Don´t cry for me Argentina
EXTD=
EXTT0=
EXTT1=
EXTT2=
EXTT3=
EXTT4=
EXTT5=
EXTT6=
EXTT7=
EXTT8=
EXTT9=
EXTT10=
EXTT11=
EXTT12=
EXTT13=
EXTT14=
EXTT15=
PLAYORDER=
